DataType=double
version=3
OpenSimVersion=4.4-2022-10-11-798caa840
endheader
time	ground_force_r_vx	ground_force_r_vy	ground_force_r_vz	ground_force_r_px	ground_force_r_py	ground_force_r_pz	ground_force_l_vx	ground_force_l_vy	ground_force_l_vz	ground_force_l_px	ground_force_l_py	ground_force_l_pz	ground_torque_r_x	ground_torque_r_y	ground_torque_r_z	ground_torque_l_x	ground_torque_l_y	ground_torque_l_z
1.685	-5.596278305042018	647.5108592234092	-49.23389852355287	1.528608342811711	0	-0.3666094387122558	-0.2969489769696028	0.100456748548378	-0.001249433503403714	1.382066955514079	0	-0.5258711938330253	0	-0.9756333559520129	0	0	-1.265821757308327e-10	0
1.69	-2.790769243193794	641.4293534896793	-47.98983538721112	1.529168825237451	0	-0.3667358877256409	-0.4058509829204499	0.1358307858521245	-0.0002830217498029149	1.402219586597842	0	-0.5258550169402251	0	-0.7217739363289724	0	0	-2.826820823861181e-10	0
1.695	-0.2913183736555767	636.1007796545151	-46.75152972714753	1.529821958451584	0	-0.3668602509625254	-0.5553698656505688	0.1840513023046406	0.001572383585953011	1.422583535504274	0	-0.5259068364263693	0	-0.4796164062294537	0	0	-6.342060522579462e-10	0
1.7	1.849288754953348	631.4860955150467	-45.48389026391548	1.530571327729578	0	-0.3669831418331995	-0.7556138757893673	0.2481583916774791	0.004832397080840726	1.443165060965583	0	-0.5260289631985834	0	-0.2532481331029004	0	0	-1.422763054939602e-09	0
1.705	3.637064113871906	627.5068475570722	-44.16832790346655	1.531413767702313	0	-0.3671033413440113	-1.015778735885386	0.3308371427753361	0.01016682502144267	1.463970155636434	0	-0.5262243192708169	0	-0.04952174589662661	0	0	-3.174713580564315e-09	0
1.71	5.104210473527917	624.0729603403007	-42.84061460266776	1.532342068949177	0	-0.3672167539753626	-1.342118230081664	0.4337883225796259	0.01836395038500379	1.485004100260225	0	-0.5264957901512184	0	0.1286947118953208	0	0	-7.013356062568477e-09	0
1.715	6.343392406081118	621.1185184134682	-41.63196240360904	1.533355654980367	0	-0.3673214891774105	-1.735128587004956	0.5568705866712981	0.03023414285786989	1.506270983009763	0	-0.5268468286056273	0	0.2883329710126503	0	0	-1.526608566643217e-08	0
1.72	7.430049098004218	618.5761321750914	-40.63444881185453	1.534445631120105	0	-0.3674165427417028	-2.187504090098725	0.6975144081674691	0.04643896028136898	1.527772776088877	0	-0.5272803393180365	0	0.4304983253120724	0	0	-3.260747853672807e-08	0
1.725	8.423463371466243	616.4291124691492	-39.93022047994324	1.535611271230423	0	-0.3675025169344594	-2.681539411944744	0.8499610938507082	0.06728153196085269	1.549510457481551	0	-0.5277996903812677	0	0.5602985558252698	0	0	-6.806850043339363e-08	0
1.73	9.342226527372729	614.7235128399408	-39.54711772370992	1.536860953021508	0	-0.3675817974201555	-3.18946251867886	1.005457224386343	0.09253289198868506	1.571482826378612	0	-0.5284079663982737	0	0.6808049687935096	0	0	-1.384024542194773e-07	0
1.735	10.16470091034796	613.4938397622855	-39.45098245585711	1.538197557578703	0	-0.3676562666074758	-3.673212851415848	1.152218961617562	0.1211817248829939	1.593688005782473	0	-0.5291088515412643	0	0.7830144913344981	0	0	-2.731349931228699e-07	0
1.74	10.87235430574557	612.8371258438567	-39.6041423954165	1.539633743200078	0	-0.3677297679123806	-4.085954594565305	1.27594787898294	0.1512484903610502	1.616123856708733	0	-0.5299055086205504	0	0.8577371227345338	0	0	-5.213524226777011e-07	0
1.745	11.46355545500072	612.8602350719582	-39.93810790597077	1.541181152559317	0	-0.367805575888498	-4.375447330764913	1.360872014397098	0.1796971569533611	1.638788936515386	0	-0.5308015857999917	0	0.9039963224936329	0	0	-9.585084943530831e-07	0
1.75	11.95842374422131	613.6701368883487	-40.40334299318576	1.542843797673402	0	-0.3678846663831278	-4.483274080733806	1.389467905280787	0.2023524346127032	1.661686082932903	0	-0.5318008665984493	0	0.929687168648293	0	0	-1.686635712039308e-06	0
1.755	12.39499806907124	615.2979072252036	-40.91252825537296	1.544612124673335	0	-0.3679667149066941	-4.356944963837013	1.346157439298171	0.2143235217983233	1.684821768970524	0	-0.5329084461533568	0	0.9339033108391703	0	0	-2.817306743008174e-06	0
1.76	12.85988660144664	617.6786934335826	-41.3899113698994	1.54646327791393	0	-0.3680524557302157	-3.957080848924403	1.219398245062359	0.2105859198565298	1.708213395167495	0	-0.5341313675488643	0	0.911320223963429	0	0	-4.411180741403786e-06	0
1.765	13.39754518160974	620.7563777695692	-41.74431050923273	1.548378179558754	0	-0.3681424905599568	-3.294037920249212	1.012871732661776	0.1884063053698266	1.731882634415107	0	-0.5354807861796075	0	0.8587862581851624	0	0	-6.377885953756657e-06	0
1.77	14.05104364675849	624.4715045898445	-41.89639327633147	1.550346724117079	0	-0.3682368469295743	-2.441266762827742	0.749358550710463	0.1491803216121235	1.755860800485615	0	-0.5369762580332079	0	0.7763800217019678	0	0	-8.348612847097758e-06	0
1.775	14.85916455018251	628.7493751008548	-41.82881876973899	1.552366230231965	0	-0.3683359566238524	-1.5473748412199	0.4743872873856569	0.1005050873887414	1.780173841586386	0	-0.5386569387330803	0	0.669241504028335	0	0	-9.676072993625162e-06	0
1.78	15.80558158949816	633.4621298887957	-41.53612476224286	1.554434152677417	0	-0.3684369144112319	-0.7877570877910783	0.2413576813688722	0.05413116092975433	1.804821806700976	0	-0.5406207055454596	0	0.5466143136551125	0	0	-9.677296175139571e-06	0
1.785	16.87983166187211	638.4360803589017	-41.08320626646436	1.5565452798935	0	-0.3685360856616462	-0.2813333644026138	0.08621351650981869	0.02036018998779309	1.829679355946422	0	-0.5432379610172848	0	0.4190973006172882	0	0	-8.085766023152585e-06	0
1.79	18.07234665712069	643.4258770529569	-40.53809056383668	1.558698180229564	0	-0.3686297284326268	-0.03299940661481532	0.01013403085013681	0.002489997126066953	1.852382424833911	0	-0.5520458372899661	0	0.2907502895970993	0	0	-5.132445100854317e-06	0
1.795	19.39280763403812	648.2219097196097	-40.0046606728124	1.560894766866749	0	-0.3687158389488049	-0.001300973835444576	0.0004073199479450479	9.040802431525415e-05	1.832631243400584	0	-0.6531550520948236	0	0.1655390062276112	0	0	4.353120320795554e-07	0
1.8	20.85468663066692	652.7202296626172	-39.56199453493254	1.563138196306907	0	-0.3687936331256379	-0.0005751738739664801	0.0001799647620088295	4.247185519522251e-05	1.863382892908843	0	-0.6338167197665	0	0.04203348553512853	0	0	-7.04628846575424e-08	0
1.805	22.45401996767649	656.8720764590865	-39.29278835444598	1.565433056038	0	-0.3688639274203338	-0.0001079779525545719	3.380550057525165e-05	8.009739977006706e-06	1.88291801708753	0	-0.6109245349385291	0	-0.07434630093026584	0	0	-4.434036592463169e-08	0
1.81	24.1791758250513	660.7202428716324	-39.23529334959693	1.567789105838224	0	-0.3689295741682886	-2.709506587015085e-05	8.481646227142643e-06	1.880836449372598e-06	1.88845170894093	0	-0.5747735287612058	0	-0.1812464810195209	0	0	-1.481746939954586e-08	0
1.815	25.99791656833191	664.3442404792097	-39.37464419643038	1.570215354912772	0	-0.3689938207637117	-1.556032855137075e-05	4.920592409822377e-06	1.074465794319784e-06	1.898147854234486	0	-0.6028697036144393	0	-0.2787845758359211	0	0	-9.3252604828145e-09	0
1.82	27.89168583962929	667.8902110420265	-39.68466859903906	1.572722376101875	0	-0.3690608908499723	-8.378440138365336e-06	2.681507395091952e-06	5.513092766110937e-07	1.898466550008237	0	-0.6326007858205261	0	-0.3647587917096971	0	0	-2.572871113535384e-09	0
1.825	29.84200475008411	671.5599670335713	-40.05278842281668	1.575321418877864	0	-0.3691316745481257	-6.716935695677239e-06	2.164747106322314e-06	3.931482481325607e-07	1.889390974898127	0	-0.6282159947942462	0	-0.4465534164068075	0	0	-3.861395932631252e-09	0
1.83	31.83668178084746	675.5388665663785	-40.44794831733184	1.578020564334384	0	-0.3692050004490406	-1.193381819531442e-05	3.855311071290337e-06	5.192384641204264e-07	1.854767191265677	0	-0.6000380458666099	0	-0.5258525050331642	0	0	-8.732092456468561e-09	0
1.835	33.89484281166641	679.9482784169746	-40.79148761230542	1.580826358278915	0	-0.3692776496798772	-4.776163577671864e-05	1.548353022409811e-05	1.625870719259762e-06	1.838734749292939	0	-0.5803910413098288	0	-0.6059878207194132	0	0	-1.433383784180023e-08	0
1.84	36.05009280005352	684.7382857677295	-41.05425470174909	1.583744796734154	0	-0.3693465829663583	-0.0002234893175280757	7.298738463852475e-05	6.823972117727531e-06	1.844871451314926	0	-0.5742960991143868	0	-0.6887650036436384	0	0	-2.067693965950913e-08	0
1.845	38.31738332326118	690.05535108426	-41.35532359356703	1.586805351565405	0	-0.369421169813346	-0.000885822385411569	0.0002922865452140275	2.524762036764599e-05	1.858438267593664	0	-0.5728832194647813	0	-0.7689873636752225	0	0	-2.196558199031909e-08	0
1.85	40.58806898147625	695.9997866483267	-41.66463026639032	1.590034684280455	0	-0.3695144617926373	-0.002744400897946855	0.0009171997947930623	7.258841533113299e-05	1.874333542775939	0	-0.5727188993676424	0	-0.8452640636273543	0	0	-1.71982791734315e-08	0
1.855	43.02442500787976	702.6657962363661	-41.98213305389937	1.593441818848358	0	-0.3696317526273806	-0.00657653061275316	0.002231678236811252	0.0001574893790198308	1.891030920889876	0	-0.5728342630455693	0	-0.9243038957769016	0	0	-1.012032143889651e-08	0
